<svg width="513" height="272" viewBox="0 0 513 272" fill="none" xmlns="http://www.w3.org/2000/svg">
<path d="M255.971 266.238C116.788 266.238 3.94531 207.891 3.94531 135.885C3.94531 63.9279 116.788 5.52539 255.971 5.52539C395.194 5.52539 508.203 63.9279 508.203 135.885C508.203 207.891 395.194 266.238 255.971 266.238Z" fill="#D51317"/>
<path d="M256.075 0.802734C115.102 0.802734 0.804688 61.2858 0.804688 135.884C0.804688 210.488 115.102 270.959 256.075 270.959C397.044 270.959 511.327 210.488 511.327 135.884C511.327 61.2858 397.044 0.802734 256.075 0.802734ZM256.075 253.16C118.749 253.16 7.46757 200.651 7.46757 135.884C7.46757 71.1212 118.749 18.6203 256.075 18.6203C393.357 18.6203 504.685 71.1212 504.685 135.884C504.685 200.651 393.357 253.16 256.075 253.16Z" fill="#FFE897"/>
<path d="M256.072 271.76C114.874 271.76 0 210.806 0 135.883C0 60.9562 114.874 0 256.072 0C397.258 0 512.126 60.9562 512.126 135.883C512.126 210.806 397.258 271.76 256.072 271.76ZM256.072 1.60373C115.757 1.60373 1.60374 61.8413 1.60374 135.883C1.60374 209.921 115.757 270.157 256.072 270.157C396.377 270.157 510.518 209.921 510.518 135.883C510.518 61.8413 396.377 1.60373 256.072 1.60373ZM256.072 253.961C118.547 253.961 6.66262 200.991 6.66262 135.883C6.66262 70.7816 118.547 17.8177 256.072 17.8177C393.596 17.8177 505.484 70.7816 505.484 135.883C505.484 200.991 393.596 253.961 256.072 253.961ZM256.072 19.4215C119.432 19.4215 8.26635 71.6667 8.26635 135.883C8.26635 200.108 119.432 252.357 256.072 252.357C392.715 252.357 503.876 200.108 503.876 135.883C503.876 71.6667 392.715 19.4215 256.072 19.4215Z" fill="#D51317"/>
<path d="M188.453 99.6855C191.79 98.3318 194.482 97.8911 194.482 97.8911C191.936 103.285 189.106 110.802 189.61 116.302C190.503 125.632 198.424 125.153 205.111 121.567C205.111 121.567 207.231 120.311 208.903 119.048C209.772 126.023 216.93 126.107 230.893 113.861C231.794 124.45 239.074 123.937 241.067 123.929C245.704 123.91 254.863 120.264 261.244 114.806L257.308 123.77H265.84C265.864 123.443 273.302 105.601 273.302 105.601C274.618 105.601 282.811 105.579 282.811 105.579C280.675 110.841 280.059 112.323 278.816 115.467C276.412 121.584 279.766 123.929 282.097 123.929C287.594 123.929 291.134 121.639 296.542 117.175C296.364 126.33 309.632 124.935 315.576 121.257C315.576 121.257 326.53 115.938 328.772 102.227C328.772 102.227 333.733 101.478 335.844 98.4208L328.853 114.27C322.892 129.17 337.151 123.358 343.209 119.586C345.434 118.216 347.521 116.63 347.521 116.63C344.606 130.916 363.64 120.455 366.555 116.525C366.555 116.525 364.444 124.625 370.875 123.929C377.005 123.24 382.6 120.201 388.682 113.368L387.521 112.201C380.205 119.803 371.768 122.942 375.081 114.875L387.245 85.5503L379.247 85.4489L367.732 112.493C365.158 115.595 364.346 116.403 360.44 118.665C357.217 120.455 354.382 119.998 357.281 113.226L368.69 85.6522L360.627 85.6214L349.389 112.201C346.027 115.595 342.974 117.398 340.83 118.51C336.616 120.66 334.09 121.151 337.639 113.468L349.023 85.6094L340.911 85.6214L339.263 89.6696C336.591 97.8305 329.129 99.3425 329.129 99.3425C330.119 94.2005 327.488 85.4489 319.815 85.7029C316.672 85.8264 314.87 88.5122 314.667 89.1782L322.121 70.841C252.854 39.1518 183.341 57.7227 127.701 84.5658L139.135 57.948C138.225 57.9318 80.9391 57.7044 80.9391 57.7044L74.8147 66.535L125.685 66.602L116.563 88.6465L113.298 90.4937C113.006 90.6987 69.5142 112.201 66.2497 144.852C64.4046 163.61 79.3518 162.181 88.8767 155.104C95.1413 150.504 103.901 141.028 110.097 126.828C117.72 109.267 125.483 90.8346 125.483 90.8346C125.483 90.8346 127.19 90.1669 130.827 90.0472C135.545 89.8746 130.657 98.6545 130.133 99.8847C126.812 107.562 126.354 108.567 123.109 115.784C119.865 123.001 127.141 126.537 136.727 120.951C137.048 120.749 121.619 134.306 119.711 148.011C118.625 155.603 121.021 158.283 121.96 159.079C127.295 163.78 138.363 158.092 144.81 142.571C148.006 134.808 164.234 96.3321 164.234 96.3321C164.234 96.3321 167.458 88.7662 169.829 85.772C173.389 81.2145 177.003 81.947 177.876 82.3735C183.244 84.7974 179.792 99.4257 179.792 99.4257C172.436 102.875 162.841 107.794 161.002 114.686C160.641 116.129 159.411 125.479 169.845 123.462C183.978 120.782 188.453 99.6855 188.453 99.6855ZM94.8004 138.169C83.8789 159.818 76.1018 159.038 72.5022 157.301C69.8834 156.062 65.639 149.765 73.9578 134.688C78.5377 126.417 82.5834 120.029 90.9738 112.055C102.326 101.237 115.673 91.4761 115.673 91.4761C115.673 91.4761 103.302 121.324 94.8004 138.169ZM209.521 115.691C209.521 115.691 207.831 117.414 205.59 118.865C203.308 120.297 200.58 121.086 198.737 119.803C197.697 119.048 196.065 115.938 198.582 108.616C198.582 108.616 201.498 100.104 204.364 95.3596C208.595 88.3072 215.61 85.6522 218.761 91.3118C218.761 91.3118 208.887 115.276 209.521 115.691ZM316.477 89.9598C317.533 88.8289 319.555 87.9438 320.814 88.7662C325.442 91.8373 322.576 99.5762 322.576 99.5762C322.576 99.5762 317.387 99.4602 316.055 96.5067C315.129 94.4582 315.113 91.4033 316.477 89.9598ZM321.861 101.815C321.861 101.815 318.045 113.675 310.184 119.803C305.702 123.257 301.861 122.625 303.104 117.189C303.502 115.552 311.305 97.0509 313.083 92.8605C311.889 101.356 321.861 101.815 321.861 101.815ZM179.622 79.8279C167.36 77.4668 158.879 88.476 153.718 100.91C144.616 122.765 145.355 121.992 132.744 151.17C130.418 156.618 127.295 159.59 124.508 158.405C121.431 157.069 123.381 150.419 127.117 141.986C131.201 133.37 134.961 127.319 145.176 112.493L143.999 111.367C137.9 119.272 128.773 122.544 132.809 113.788C135.684 107.597 137.068 104.137 140.125 97.134C143.836 88.6464 136.877 86.4375 125.858 89.2289L126.459 88.3072C189.48 59.8621 254.385 56.5573 313.863 71.7157C308.845 83.5043 298.824 107.999 298.824 107.999C297.801 110.035 296.786 114.115 296.786 114.115C290.371 120.061 284.922 122.774 286.758 115.811L299.133 85.4489H291.248L283.842 103.064H274.277L281.682 85.4489C279.734 85.4489 273.546 85.4489 273.546 85.4489L262.576 111.574C257.941 115.691 249.057 119.923 245.062 120.061C241.741 120.169 237.279 118.734 239.074 109.525C239.987 104.899 241.944 99.4602 245.14 92.3978C248.806 84.3059 251.071 81.8763 254.044 78.295C261.739 69.0482 269.575 74.0564 263.071 82.203C261.959 83.6017 260.627 84.8868 259.539 86.0845L265.077 91.4964C272.125 84.2756 273.416 71.5797 263.201 70.9283C252.021 70.2157 242.708 80.4793 237.795 89.0015C234.206 95.244 231.181 104.483 230.722 111.35C230.722 111.35 227.986 113.999 224.385 116.525C218.051 120.985 215.598 118.665 218.542 111.194L229.35 85.4489H221.417L219.817 89.4825C219.017 88.5978 218.761 88.1508 217.657 87.4445C212.899 83.1082 201.985 85.1445 196.025 95.1729C196.025 95.1729 193.824 95.6826 191.595 96.3728C189.699 96.9594 188.635 97.2376 188.635 97.2376C189.48 90.9667 186.938 81.2348 179.622 79.8279ZM164.547 119.534C164.547 119.534 162.744 118.271 163.747 114.686C165.46 108.445 179.159 102.311 179.159 102.311C177.949 106.381 175.44 111.695 173.93 114.357C172.103 117.591 167.799 121.738 164.547 119.534Z" fill="#FFE897"/>
<path d="M386.734 79.9487C392.8 78.3143 395.593 71.3288 392.288 64.6602C391.996 70.028 388.033 73.8504 385.183 74.8432C382.788 75.6755 380.303 76.9299 373.344 74.8574C376.039 78.6029 380.489 81.6824 386.734 79.9487Z" fill="#FFE897"/>
<path d="M451.648 178.649C452.98 162.124 440.938 160.126 436.675 166.144L448.871 136.418L377.308 136.192C373.077 136.192 365.916 136.379 364.446 142.855C362.984 149.359 365.331 156.253 367.588 163.513C369.269 168.977 366.995 179.331 366.435 181.641C363.609 192.827 359.354 196.724 358.534 197.52C356.529 199.388 348.254 202.404 349.886 189.582C349.854 189.871 350.755 184.317 351.786 180.963C353.516 176.119 356.723 165.494 365.209 164.836L364.592 163.184C356.723 162.489 350.544 167.305 347.848 171.194C340.881 181.166 343.236 192.112 343.236 192.112C343.236 192.112 325.298 205.226 332.363 189.371L344.194 161.523H335.895L328.831 178.356C316.025 182.148 319.192 170.155 319.192 170.155C320.702 160.833 326.971 150.419 335.838 151.771C338.672 152.201 339.785 153.301 341.742 155.62L344.048 154.426C341.872 152.1 337.406 148.75 331.738 147.037C311.088 140.833 298.851 142.071 287.71 144.378C265.063 149.002 247.712 160.573 232.332 172.408L236.636 162.246C225.073 166.298 221.029 165.969 221.029 165.969C222.913 158.023 223.221 144.321 213.144 142.396C205.743 140.959 200.55 146.034 199.023 149.765C196.189 156.676 196.847 167.199 210.781 168.888C207.095 182.676 202.856 189.903 199.916 193.736C194.265 201.036 190.663 202.514 185.292 201.328C178.309 199.745 177.919 193.354 178.089 184.179C178.219 177.423 184.955 144.921 202.344 137.264C210.254 133.785 214.391 135.49 217.651 137.484C219.372 138.567 220.526 140.171 221.419 141.028L222.45 139.591C222.604 139.761 219.186 132.418 211.078 130.979C208.654 130.571 203.696 130.993 200.241 132.078C188.897 135.594 178.118 143.947 172.032 162.965C171.171 165.705 167.769 176.497 170.7 190.318C172.689 199.7 178.605 201.657 181.147 202.936C184.05 204.39 195.39 206.355 205.714 196.143C209.19 192.64 213.38 187.154 217.245 178.803C219.559 173.687 220.526 169.57 220.526 169.57C220.526 169.57 225.633 169.107 226.25 168.653C226.25 168.653 216.445 192.363 212.58 200.744H220.4L228.573 181.068C228.573 181.068 236.92 177.638 234.728 183.618C232.137 190.488 232.994 187.711 230.4 194.84C227.46 202.717 236.855 202.754 247.574 195.336L245.345 200.744H252.738C252.421 200.744 264.811 172.64 264.811 172.64C264.811 172.64 266.662 171.316 269.74 170.082C271.697 169.339 276.748 166.81 274.677 171.763L262.432 200.744C265.022 200.744 270.641 200.744 270.641 200.744L281.782 173.776C293.751 167.199 290.893 172.729 290.373 173.963L282.7 191.746C278.818 200.285 283 203.675 293.532 198.738C295.375 197.893 296.114 197.341 296.114 197.341C298.12 206.85 315.676 194.735 325.558 181.751C325.558 181.751 326.557 181.791 327.539 181.454L323.423 191.682C320.377 202.92 327.921 203.521 343.715 194.715C343.715 194.715 345.802 200.947 354.141 200.947C359.549 201.454 365.745 196.586 368.092 193.354C368.092 193.354 371.088 193.062 366.289 199.777C361.717 206.16 357.519 209.083 354.401 215.108C347.377 228.945 352.241 237.143 355.53 237.67C360.995 238.507 367.166 236.83 376.074 218.503C376.074 218.503 393.297 179.412 398.615 166.7C402.464 157.524 407.515 158.007 409.001 158.876C414.076 161.816 410.885 176.359 410.885 176.359C386.013 184.706 387.767 204.037 400.913 200.187C405.493 198.86 415.376 191.495 419.647 176.44C419.647 176.44 423.813 175.368 425.404 174.921C425.404 174.921 424.186 178.6 421.376 184.966C417.211 194.276 419.882 200.395 426.752 200.744C445.615 201.645 451.21 180.719 451.21 180.719C451.47 180.776 456.496 180.857 460.077 177.089L458.762 175.811C456.431 178.787 451.892 178.71 451.648 178.649ZM211.666 165.539C211.666 165.539 210.875 165.64 207.403 164.633C200.87 162.778 199.827 155.035 203.043 150.447C205.848 146.452 209.774 148.198 210.887 149.668C214.24 154.117 211.666 165.539 211.666 165.539ZM249.295 191.475C248.394 192.863 234.054 202.579 237.902 193.48C239.852 188.86 240.261 187.816 241.841 184.02C246.965 172.209 230.193 177.82 230.193 177.82C229.9 177.958 230.863 176.119 230.863 176.119C239.864 169.928 257.748 160.248 263.162 158.064L249.295 191.475ZM307.653 195.303C306.207 196.192 301.23 197.098 305.355 187.816C305.615 187.788 297.422 187.816 297.422 187.816C296.317 189.985 295.814 191.803 295.659 194.812C295.659 194.812 293.459 196.513 291.437 197.098C290.479 197.366 287.401 198.031 289.862 192.725L298.64 172.347C302.326 163.915 296.017 164.073 290.26 166.261C286.281 167.78 283.577 169.643 283.577 169.643C283.577 169.643 286.857 163.289 280.8 163.391C277.105 163.472 270.714 164.946 266.013 168.653L271.697 155.376C271.697 155.376 292.363 145.64 329.326 149.668C323.057 149.875 316.52 152.814 312.42 162.473C310.227 167.638 310.747 176.594 314.563 180.167C316.991 182.392 321.774 182.165 321.774 182.165C321.774 182.165 314.742 190.942 307.653 195.303ZM404.348 191.787C402.716 194.637 399.354 198.981 395.984 197.938C393.759 197.203 393.735 194.138 393.759 193.967C394.157 185.762 410.17 179.144 410.17 179.144C407.71 186.371 405.493 189.83 404.348 191.787ZM419.566 174.004C420.483 164.495 415.254 156.229 408.887 156.062C396.074 155.717 389.74 166.996 384.657 178.941C376.074 199.213 362.903 230.61 362.903 230.61C360.329 236.343 357.267 236.716 355.855 235.896C354.799 235.287 353.743 233.411 354.701 228.718C355.53 224.544 357.966 216.724 369.082 201.357C372.647 196.428 375.708 190.975 370.674 190.382C370.674 190.382 375.132 183.236 375.473 175.547C375.765 168.109 373.199 162.246 371.851 159.237C366.687 147.459 364.925 143.586 377.966 143.61C390.795 143.618 439.216 143.61 439.216 143.61C439.03 144.089 426.752 171.909 426.752 171.909C423.91 172.64 419.566 174.004 419.566 174.004ZM427.759 198.153C423.48 197.707 425.518 192.071 426.37 190.171C429.042 184.296 432.184 176.749 435.587 169.107C434.166 175.811 440.296 179.039 443.934 179.83C443.934 179.83 436.082 198.965 427.759 198.153ZM444.576 177.544C444.576 177.544 437.325 175.782 437.803 169.928C438.128 166.298 441.482 165.429 443 166.639C446.703 169.643 444.576 177.544 444.576 177.544Z" fill="#FFE897"/>
<path d="M412.614 100.759C418.826 100.759 423.836 95.8018 423.836 89.7197C423.836 83.6418 418.826 78.7168 412.614 78.7168C406.37 78.7168 401.344 83.6418 401.344 89.7197C401.344 95.8018 406.37 100.759 412.614 100.759ZM412.614 79.9836C418.087 79.9836 422.529 84.3623 422.529 89.7197C422.529 95.1216 418.087 99.4945 412.614 99.4945C407.101 99.4945 402.651 95.1216 402.651 89.7197C402.651 84.3623 407.101 79.9836 412.614 79.9836Z" fill="#FFE897"/>
<path d="M409.984 90.8344L412.737 90.7778L414.604 96.4454C414.604 96.4454 417.406 96.4454 417.666 96.4454C417.666 96.4454 415.587 90.8344 415.628 90.7778C416.131 90.6618 417.918 89.8744 417.918 87.2801C417.918 84.3058 415.952 82.9883 413.89 82.9883H407.312V96.4454H410.033L409.984 90.8344ZM409.984 85.2234L413.354 85.1951C413.354 85.1951 415.149 85.1078 415.181 86.8676C415.23 88.6463 413.135 88.5386 413.135 88.5386H409.984V85.2234Z" fill="#FFE897"/>
</svg>
